<?xml version="1.0" encoding="UTF-8" standalone="no"?>
<svg
   xmlns:dc="http://purl.org/dc/elements/1.1/"
   xmlns:cc="http://creativecommons.org/ns#"
   xmlns:rdf="http://www.w3.org/1999/02/22-rdf-syntax-ns#"
   xmlns:svg="http://www.w3.org/2000/svg"
   xmlns="http://www.w3.org/2000/svg"
   xmlns:sodipodi="http://sodipodi.sourceforge.net/DTD/sodipodi-0.dtd"
   xmlns:inkscape="http://www.inkscape.org/namespaces/inkscape"
   version="1.1"
   id="svg2"
   xml:space="preserve"
   width="156.77733"
   height="157.93201"
   viewBox="0 0 156.77733 157.93201"
   sodipodi:docname="9up_logo.ai"><metadata
     id="metadata8"><rdf:RDF><cc:Work
         rdf:about=""><dc:format>image/svg+xml</dc:format><dc:type
           rdf:resource="http://purl.org/dc/dcmitype/StillImage" /></cc:Work></rdf:RDF></metadata><defs
     id="defs6"><clipPath
       clipPathUnits="userSpaceOnUse"
       id="clipPath18"><path
         d="M 0,0 H 117.583 V 118.449 H 0 Z"
         id="path16" /></clipPath><clipPath
       clipPathUnits="userSpaceOnUse"
       id="clipPath30"><path
         d="M 0,118.449 H 117.583 V 0 H 0 Z"
         id="path28" /></clipPath></defs><sodipodi:namedview
     pagecolor="#ffffff"
     bordercolor="#666666"
     borderopacity="1"
     objecttolerance="10"
     gridtolerance="10"
     guidetolerance="10"
     inkscape:pageopacity="0"
     inkscape:pageshadow="2"
     inkscape:window-width="640"
     inkscape:window-height="480"
     id="namedview4" /><g
     id="g10"
     inkscape:groupmode="layer"
     inkscape:label="9up_logo"
     transform="matrix(1.3333333,0,0,-1.3333333,0,157.932)"><g
       id="g12"><g
         id="g14"
         clip-path="url(#clipPath18)"><g
           id="g20"
           transform="translate(118,59.4487)"><path
             d="m 0,0 c 0,-32.584 -26.415,-59 -59,-59 -32.585,0 -59,26.416 -59,59 0,32.585 26.415,59 59,59 C -26.415,59 0,32.585 0,0"
             style="fill:#0f2843;fill-opacity:1;fill-rule:nonzero;stroke:none"
             id="path22" /></g></g></g><g
       id="g24"><g
         id="g26"
         clip-path="url(#clipPath30)"><g
           id="g32"
           transform="translate(28.4419,61.7803)"><path
             d="M 0,0 C 1.47,0 2.58,1.26 2.61,2.729 2.58,4.17 1.5,5.52 0.03,5.52 -1.29,5.52 -2.46,4.439 -2.64,3.15 -2.88,1.56 -1.62,0 0,0 m 0.96,-9.87 c -0.72,-0.779 -1.62,-1.829 -2.73,-1.829 -0.15,0 -0.51,0.029 -0.87,0.179 -0.39,0.15 -1.38,0.69 -1.41,1.92 0,0.09 0.03,0.48 0.15,0.84 0.39,1.08 1.35,1.77 2.1,2.58 0.78,0.84 1.41,1.77 2.07,2.7 -0.96,-0.27 -1.2,-0.33 -1.74,-0.33 -1.29,0 -2.82,0.66 -3.81,1.47 -0.75,0.63 -2.19,2.31 -2.19,5.16 0,0.6 0.06,1.889 0.72,3.3 1.74,3.599 5.64,3.9 6.84,3.9 0.42,0 1.44,-0.031 2.52,-0.391 C 4.23,9.12 7.53,7.5 7.5,2.82 7.5,2.28 7.5,1.5 7.2,0.33 6.6,-2.16 5.34,-4.11 3.96,-6.18 Z"
             style="fill:#ffffff;fill-opacity:1;fill-rule:nonzero;stroke:none"
             id="path34" /></g><g
           id="g36"
           transform="translate(42.6919,57.1602)"><path
             d="m 0,0 c 0.09,-1.109 0.21,-1.95 1.2,-2.52 0.18,-0.089 0.63,-0.33 1.2,-0.33 0.51,0 0.9,0.15 1.32,0.42 0.96,0.66 0.99,1.5 1.02,2.64 V 6.12 C 4.77,7.26 4.83,8.19 5.82,8.85 5.97,8.97 6.45,9.24 7.08,9.24 7.29,9.24 7.8,9.21 8.31,8.88 9.419,8.19 9.39,7.02 9.419,6.6 V -0.42 C 9.39,-1.41 9.39,-2.34 9.06,-3.239 8.07,-5.909 5.19,-7.199 2.4,-7.199 c -2.16,0 -4.56,0.869 -5.88,2.609 -0.42,0.54 -0.57,0.96 -0.69,1.2 -0.42,1.05 -0.45,1.951 -0.48,3.09 v 6.78 c 0.09,0.99 0.21,1.8 1.08,2.37 0.18,0.12 0.66,0.39 1.29,0.39 0.3,0 1.14,-0.09 1.71,-0.78 C -0.09,7.92 -0.06,7.32 0,6.6 Z"
             style="fill:#ffffff;fill-opacity:1;fill-rule:nonzero;stroke:none"
             id="path38" /></g><g
           id="g40"
           transform="translate(59.4912,55.9004)"><path
             d="m 0,0 c 0.271,-0.45 1.141,-1.68 2.7,-1.65 0.3,0 0.96,0.03 1.59,0.45 1.08,0.72 1.65,2.19 1.65,3.54 C 5.94,2.58 5.91,3.3 5.67,3.93 5.19,5.19 4.11,6.21 2.761,6.21 2.131,6.21 1.71,6.03 1.471,5.94 -0.209,5.16 -0.479,3.21 -0.54,2.64 -0.66,1.32 -0.27,0.479 0,0 m -0.479,-9.029 c -0.061,-1.111 -0.15,-2.011 -1.081,-2.611 -0.149,-0.12 -0.629,-0.389 -1.23,-0.36 -0.239,0 -0.75,0.03 -1.289,0.421 -0.96,0.63 -1.02,1.47 -1.02,2.579 V 7.17 c 0,1.08 0.03,2.01 0.93,2.729 0.24,0.21 0.66,0.54 1.41,0.511 1.139,0 1.619,-0.66 2.219,-1.5 0.181,0.18 0.391,0.39 0.601,0.569 0.54,0.451 1.649,1.17 3.45,1.17 C 5.431,10.649 7.32,9.78 8.55,8.34 9.78,6.9 10.561,4.38 10.561,2.52 10.53,0.21 9.63,-1.8 9.3,-2.4 9.12,-2.7 8.73,-3.39 8.07,-4.05 7.29,-4.8 5.7,-5.97 3.061,-5.97 c -1.441,0 -2.311,0.571 -3.54,1.35 z"
             style="fill:#ffffff;fill-opacity:1;fill-rule:nonzero;stroke:none"
             id="path42" /></g><g
           id="g44"
           transform="translate(75.0918,55.0908)"><path
             d="m 0,0 c 1.35,0 2.489,-1.141 2.489,-2.551 0,-1.38 -1.199,-2.489 -2.579,-2.489 -0.54,0 -0.96,0.21 -1.14,0.3 -0.99,0.57 -1.5,1.679 -1.23,2.79 C -2.19,-0.78 -1.17,0 0,0"
             style="fill:#ffffff;fill-opacity:1;fill-rule:nonzero;stroke:none"
             id="path46" /></g><g
           id="g48"
           transform="translate(84.542,53.0801)"><path
             d="m 0,0 c -0.091,-1.079 -0.181,-1.949 -1.08,-2.55 -0.181,-0.09 -0.66,-0.359 -1.26,-0.359 -0.33,0 -1.23,0.149 -1.801,0.899 -0.33,0.42 -0.449,0.811 -0.509,1.861 V 10.14 c 0.03,1.11 0.089,1.98 0.99,2.67 0.57,0.45 1.109,0.51 1.38,0.51 0.24,-0.03 0.78,-0.06 1.29,-0.42 0.87,-0.63 0.929,-1.53 0.99,-2.55 z m -2.221,20.04 c 1.441,0 2.611,-1.17 2.611,-2.64 0,-1.47 -1.26,-2.61 -2.701,-2.61 -1.559,0 -2.729,1.26 -2.609,2.79 0.12,1.379 1.319,2.46 2.699,2.46"
             style="fill:#ffffff;fill-opacity:1;fill-rule:nonzero;stroke:none"
             id="path50" /></g><g
           id="g52"
           transform="translate(94.1709,54.3105)"><path
             d="M 0,0 C 0.359,0.03 1.29,0.12 2.01,0.899 2.79,1.68 3.119,3 3.119,4.05 3.119,4.59 3.029,6.359 1.56,7.379 0.899,7.83 0.3,7.919 0,7.919 -0.21,7.919 -0.63,7.859 -1.141,7.649 -3.061,6.81 -3.21,4.65 -3.21,4.08 -3.33,1.05 -1.29,0 0,0 m -5.4,10.109 c 0.75,0.721 2.64,2.19 5.61,2.19 0.84,0 2.909,-0.12 4.769,-1.71 C 7.59,8.399 7.77,5.16 7.77,4.05 7.77,2.729 7.529,1.47 7.02,0.3 5.789,-2.52 2.85,-4.35 -0.181,-4.35 c -0.569,0 -1.799,0.06 -3.239,0.75 -3.09,1.47 -4.62,4.62 -4.41,8.07 0.12,2.13 0.96,4.199 2.43,5.639"
             style="fill:#ffffff;fill-opacity:1;fill-rule:nonzero;stroke:none"
             id="path54" /></g></g></g></g></svg>
