<svg id="Layer_1" data-name="Layer 1" xmlns="http://www.w3.org/2000/svg" viewBox="0 0 576 252"><defs><style>.cls-1{fill:#fff;}</style></defs><path class="cls-1" d="M288.65,108.24a37.06,37.06,0,1,1,37.06-37.06H317.3a28.68,28.68,0,1,0-28.67,28.68v8.38Z"/><path class="cls-1" d="M288.65,132a60.86,60.86,0,0,1-60.79-60.79h8.41A52.39,52.39,0,1,0,288.65,18.8V10.39a60.79,60.79,0,1,1,0,121.58Z"/><path class="cls-1" d="M28.06,241.28a23.26,23.26,0,0,1-6-.52v-7.91a26.57,26.57,0,0,0,4.68.38c3.76,0,6.61-1.69,6.61-7.15V185.74h9v41.64C42.34,237.74,36.21,241.28,28.06,241.28Z"/><path class="cls-1" d="M72.53,185.74V224c0,6.15,3.31,10,9.15,10s9.15-3.85,9.15-10V185.74h9v38.72c0,10.29-6.54,17.13-18.13,17.13s-18.13-6.84-18.13-17.13V185.74Z"/><path class="cls-1" d="M121.76,185.74h12.76l9.29,36.42A47.69,47.69,0,0,1,145,229h.24a40.76,40.76,0,0,1,1.23-6.91l9.15-36.35h12.76v54.54h-8.08V204.62c0-3,0-7.46.24-10.28h-.31c-.24,2.06-.69,4.3-1.31,7.36l-9.83,38.58H141l-9.91-38.58c-.62-3.06-1.16-6.29-1.31-7.36h-.3c.23,2.85.23,7.29.23,10.28v35.66h-7.91V185.74Z"/><path class="cls-1" d="M225.08,201.87c0,10.76-6.23,16.91-16.75,16.91h-8.22v21.53h-9V185.74h17.06C218.88,185.74,225.08,191.87,225.08,201.87Zm-9.6,0c0-6.23-3-9.46-8.53-9.46h-6.84V212H207C212.42,212,215.48,208.54,215.48,201.87Z"/><path class="cls-1" d="M255.87,212.94c0-20.22,7-28.51,20.22-28.51,11.38,0,17.81,6.39,18.22,19.15l-9.08,1.31c-.31-9.29-3.37-13.07-9.29-13.07-7.53,0-10.76,6-10.76,21.12,0,15.3,3.23,21.14,10.91,21.14,5.53,0,8.83-4,9.38-12.9l8.91,1.69c-.93,12.21-7.53,18.74-18.37,18.74C262.09,241.59,255.87,233.3,255.87,212.94Z"/><path class="cls-1" d="M330.63,217.76h-7.22v22.52h-9V185.74h17.2c12.31,0,17,6.46,17,15.91,0,7.08-3.07,12.45-9.15,14.62l10.45,24h-9.83Zm-7.24-6.29h7.22c6,0,8.38-3.76,8.38-9.84s-2.3-9.31-8.45-9.31h-7.15Z"/><path class="cls-1" d="M376,219l-15-33.29h9.69l8.53,20.53a26.83,26.83,0,0,1,1.24,4.75h.16a22.16,22.16,0,0,1,1.31-4.75l8.46-20.53h9.69l-15,33.29v21.28H376V219Z"/><path class="cls-1" d="M451.22,201.87c0,10.76-6.22,16.91-16.74,16.91h-8.22v21.53h-9V185.74h17.06C445,185.74,451.22,191.87,451.22,201.87Zm-9.59,0c0-6.23-3-9.46-8.53-9.46h-6.84V212h6.91C438.54,212,441.63,208.54,441.63,201.87Z"/><path class="cls-1" d="M500.31,193.34H486.62v46.94h-8.91V193.34H464v-7.6h36.28v7.6Z"/><path class="cls-1" d="M512.8,212.94c0-20,7.46-28.58,20.6-28.58s20.53,8.6,20.53,28.58-7.46,28.67-20.53,28.67S512.8,232.92,512.8,212.94Zm31.67,0c0-15.51-3.92-21.29-11.07-21.29s-11.21,5.78-11.21,21.29,4.06,21.29,11.21,21.29S544.47,228.52,544.47,212.94Z"/></svg>