<svg width="300" height="93" viewBox="0 0 209 93" fill="none" xmlns="http://www.w3.org/2000/svg">
<path d="M0 93H3.92122V77.1257L13.0363 93H16.3728L25.4879 77.1257V93H29.4092V69H25.5567L14.7218 87.9257L3.85243 69H0V93Z" fill="white"/>
<path d="M38.5208 93H53.6898V89.0914H42.4421V82.9543H53.6898V79.0457H42.4421V72.9086H53.6898V69H38.5208V93Z" fill="white"/>
<path d="M68.6989 93H72.6201V72.9086H81.7008V69H59.5838V72.9086H68.6989V93Z" fill="white"/>
<path d="M105.137 93H109.437L98.2578 69H94.4397L83.2608 93H87.5604L89.4866 88.8171H103.176L105.137 93ZM91.3096 84.9086L96.3315 74.1086L101.353 84.9086H91.3096Z" fill="white"/>
<path d="M116.227 93H120.148V85.4571H125.204C130.02 85.4571 133.494 81.9943 133.494 77.2286C133.494 72.4971 130.02 69 125.204 69H116.227V93ZM120.148 81.5486V72.9086H125.204C127.75 72.9086 129.573 74.7257 129.573 77.2286C129.573 79.7314 127.75 81.5486 125.204 81.5486H120.148Z" fill="white"/>
<path d="M140.908 93H156.284V89.0914H144.83V69H140.908V93Z" fill="white"/>
<path d="M163.171 93H178.34V89.0914H167.093V82.9543H178.34V79.0457H167.093V72.9086H178.34V69H163.171V93Z" fill="white"/>
<path d="M184.475 93H189.531L196.755 84.12L203.944 93H209L199.266 81L209 69H203.978L196.755 77.88L189.531 69H184.475L194.209 81L184.475 93Z" fill="white"/>
<path fill-rule="evenodd" clip-rule="evenodd" d="M104.134 33.4539C104.439 33.9793 104.416 34.6386 104.075 35.1405L96.7073 45.9952C96.0722 46.9307 94.7034 46.8767 94.1407 45.8938L69.2114 2.34841C68.6161 1.30855 69.3488 0 70.5263 0H83.8486C84.3863 0 84.8842 0.290013 85.1589 0.763164L104.134 33.4539ZM139.79 45.6533C140.384 46.6931 139.651 48 138.474 48H125.233C124.692 48 124.192 47.7065 123.918 47.2287L98.2246 2.34841C97.6293 1.30855 98.362 0 99.5396 0H112.854C113.396 0 113.897 0.29427 114.17 0.772959L139.79 45.6533ZM79.7226 47.5755C80.9038 47.5755 81.636 46.2596 81.0333 45.2198L71.8981 29.4588C71.1075 28.0946 69.0633 28.6685 69.0633 30.2546V46.0157C69.0633 46.8772 69.7457 47.5755 70.5874 47.5755H79.7226Z" fill="white"/>
</svg>
